<svg id="visual" viewBox="0 0 1920 450" width="1920" height="450" xmlns="http://www.w3.org/2000/svg" xmlns:xlink="http://www.w3.org/1999/xlink" version="1.1"><rect x="0" y="0" width="1920" height="450" fill="#0f1624"></rect><path d="M0 131L45.7 138.3C91.3 145.7 182.7 160.3 274.2 161.7C365.7 163 457.3 151 548.8 149C640.3 147 731.7 155 823 162.5C914.3 170 1005.7 177 1097 179.2C1188.3 181.3 1279.7 178.7 1371.2 171.5C1462.7 164.3 1554.3 152.7 1645.8 146.7C1737.3 140.7 1828.7 140.3 1874.3 140.2L1920 140L1920 0L1874.3 0C1828.7 0 1737.3 0 1645.8 0C1554.3 0 1462.7 0 1371.2 0C1279.7 0 1188.3 0 1097 0C1005.7 0 914.3 0 823 0C731.7 0 640.3 0 548.8 0C457.3 0 365.7 0 274.2 0C182.7 0 91.3 0 45.7 0L0 0Z" fill="#fa7268"></path><path d="M0 151L45.7 144C91.3 137 182.7 123 274.2 112.8C365.7 102.7 457.3 96.3 548.8 102C640.3 107.7 731.7 125.3 823 127.2C914.3 129 1005.7 115 1097 107.3C1188.3 99.7 1279.7 98.3 1371.2 102.7C1462.7 107 1554.3 117 1645.8 117.7C1737.3 118.3 1828.7 109.7 1874.3 105.3L1920 101L1920 0L1874.3 0C1828.7 0 1737.3 0 1645.8 0C1554.3 0 1462.7 0 1371.2 0C1279.7 0 1188.3 0 1097 0C1005.7 0 914.3 0 823 0C731.7 0 640.3 0 548.8 0C457.3 0 365.7 0 274.2 0C182.7 0 91.3 0 45.7 0L0 0Z" fill="#ef5f67"></path><path d="M0 114L45.7 109C91.3 104 182.7 94 274.2 94.7C365.7 95.3 457.3 106.7 548.8 111.8C640.3 117 731.7 116 823 109C914.3 102 1005.7 89 1097 86.3C1188.3 83.7 1279.7 91.3 1371.2 90C1462.7 88.7 1554.3 78.3 1645.8 75C1737.3 71.7 1828.7 75.3 1874.3 77.2L1920 79L1920 0L1874.3 0C1828.7 0 1737.3 0 1645.8 0C1554.3 0 1462.7 0 1371.2 0C1279.7 0 1188.3 0 1097 0C1005.7 0 914.3 0 823 0C731.7 0 640.3 0 548.8 0C457.3 0 365.7 0 274.2 0C182.7 0 91.3 0 45.7 0L0 0Z" fill="#e34c67"></path><path d="M0 47L45.7 53.3C91.3 59.7 182.7 72.3 274.2 73.5C365.7 74.7 457.3 64.3 548.8 58.2C640.3 52 731.7 50 823 49C914.3 48 1005.7 48 1097 49.7C1188.3 51.3 1279.7 54.7 1371.2 54.2C1462.7 53.7 1554.3 49.3 1645.8 47.3C1737.3 45.3 1828.7 45.7 1874.3 45.8L1920 46L1920 0L1874.3 0C1828.7 0 1737.3 0 1645.8 0C1554.3 0 1462.7 0 1371.2 0C1279.7 0 1188.3 0 1097 0C1005.7 0 914.3 0 823 0C731.7 0 640.3 0 548.8 0C457.3 0 365.7 0 274.2 0C182.7 0 91.3 0 45.7 0L0 0Z" fill="#d53867"></path><path d="M0 48L45.7 43.3C91.3 38.7 182.7 29.3 274.2 29C365.7 28.7 457.3 37.3 548.8 39.5C640.3 41.7 731.7 37.3 823 33.7C914.3 30 1005.7 27 1097 25.3C1188.3 23.7 1279.7 23.3 1371.2 27.7C1462.7 32 1554.3 41 1645.8 45C1737.3 49 1828.7 48 1874.3 47.5L1920 47L1920 0L1874.3 0C1828.7 0 1737.3 0 1645.8 0C1554.3 0 1462.7 0 1371.2 0C1279.7 0 1188.3 0 1097 0C1005.7 0 914.3 0 823 0C731.7 0 640.3 0 548.8 0C457.3 0 365.7 0 274.2 0C182.7 0 91.3 0 45.7 0L0 0Z" fill="#c62368"></path></svg>