<svg id="visual" viewBox="0 0 900 600" width="900" height="600" xmlns="http://www.w3.org/2000/svg" xmlns:xlink="http://www.w3.org/1999/xlink" version="1.1"><rect x="0" y="0" width="900" height="600" fill="#0f1624"></rect><path d="M0 435L21.5 428.3C43 421.7 86 408.3 128.8 400.5C171.7 392.7 214.3 390.3 257.2 395.3C300 400.3 343 412.7 385.8 413.8C428.7 415 471.3 405 514.2 393.7C557 382.3 600 369.7 642.8 365.8C685.7 362 728.3 367 771.2 366.5C814 366 857 360 878.5 357L900 354L900 601L878.5 601C857 601 814 601 771.2 601C728.3 601 685.7 601 642.8 601C600 601 557 601 514.2 601C471.3 601 428.7 601 385.8 601C343 601 300 601 257.2 601C214.3 601 171.7 601 128.8 601C86 601 43 601 21.5 601L0 601Z" fill="#fa7268"></path><path d="M0 419L21.5 416.2C43 413.3 86 407.7 128.8 417.5C171.7 427.3 214.3 452.7 257.2 453.8C300 455 343 432 385.8 424.2C428.7 416.3 471.3 423.7 514.2 434.2C557 444.7 600 458.3 642.8 462.3C685.7 466.3 728.3 460.7 771.2 461.5C814 462.3 857 469.7 878.5 473.3L900 477L900 601L878.5 601C857 601 814 601 771.2 601C728.3 601 685.7 601 642.8 601C600 601 557 601 514.2 601C471.3 601 428.7 601 385.8 601C343 601 300 601 257.2 601C214.3 601 171.7 601 128.8 601C86 601 43 601 21.5 601L0 601Z" fill="#ef5f67"></path><path d="M0 466L21.5 471C43 476 86 486 128.8 483.5C171.7 481 214.3 466 257.2 463.7C300 461.3 343 471.7 385.8 477.5C428.7 483.3 471.3 484.7 514.2 478.2C557 471.7 600 457.3 642.8 453.7C685.7 450 728.3 457 771.2 462.7C814 468.3 857 472.7 878.5 474.8L900 477L900 601L878.5 601C857 601 814 601 771.2 601C728.3 601 685.7 601 642.8 601C600 601 557 601 514.2 601C471.3 601 428.7 601 385.8 601C343 601 300 601 257.2 601C214.3 601 171.7 601 128.8 601C86 601 43 601 21.5 601L0 601Z" fill="#e34c67"></path><path d="M0 538L21.5 533.7C43 529.3 86 520.7 128.8 514.7C171.7 508.7 214.3 505.3 257.2 506.8C300 508.3 343 514.7 385.8 512.7C428.7 510.7 471.3 500.3 514.2 493.8C557 487.3 600 484.7 642.8 493.3C685.7 502 728.3 522 771.2 524.5C814 527 857 512 878.5 504.5L900 497L900 601L878.5 601C857 601 814 601 771.2 601C728.3 601 685.7 601 642.8 601C600 601 557 601 514.2 601C471.3 601 428.7 601 385.8 601C343 601 300 601 257.2 601C214.3 601 171.7 601 128.8 601C86 601 43 601 21.5 601L0 601Z" fill="#d53867"></path><path d="M0 571L21.5 566.2C43 561.3 86 551.7 128.8 548.8C171.7 546 214.3 550 257.2 552.2C300 554.3 343 554.7 385.8 552.7C428.7 550.7 471.3 546.3 514.2 547.2C557 548 600 554 642.8 553.5C685.7 553 728.3 546 771.2 545.5C814 545 857 551 878.5 554L900 557L900 601L878.5 601C857 601 814 601 771.2 601C728.3 601 685.7 601 642.8 601C600 601 557 601 514.2 601C471.3 601 428.7 601 385.8 601C343 601 300 601 257.2 601C214.3 601 171.7 601 128.8 601C86 601 43 601 21.5 601L0 601Z" fill="#c62368"></path></svg>