<svg id="visual" viewBox="0 0 1920 500" width="1920" height="500" xmlns="http://www.w3.org/2000/svg" xmlns:xlink="http://www.w3.org/1999/xlink" version="1.1"><rect x="0" y="0" width="1920" height="500" fill="#0f1624"></rect><path d="M0 168L45.7 174.3C91.3 180.7 182.7 193.3 274.2 198C365.7 202.7 457.3 199.3 548.8 190.2C640.3 181 731.7 166 823 163.7C914.3 161.3 1005.7 171.7 1097 178.5C1188.3 185.3 1279.7 188.7 1371.2 185.7C1462.7 182.7 1554.3 173.3 1645.8 175.2C1737.3 177 1828.7 190 1874.3 196.5L1920 203L1920 0L1874.3 0C1828.7 0 1737.3 0 1645.8 0C1554.3 0 1462.7 0 1371.2 0C1279.7 0 1188.3 0 1097 0C1005.7 0 914.3 0 823 0C731.7 0 640.3 0 548.8 0C457.3 0 365.7 0 274.2 0C182.7 0 91.3 0 45.7 0L0 0Z" fill="#fa7268"></path><path d="M0 99L45.7 101.3C91.3 103.7 182.7 108.3 274.2 116.7C365.7 125 457.3 137 548.8 137.8C640.3 138.7 731.7 128.3 823 126.8C914.3 125.3 1005.7 132.7 1097 135C1188.3 137.3 1279.7 134.7 1371.2 134C1462.7 133.3 1554.3 134.7 1645.8 139.2C1737.3 143.7 1828.7 151.3 1874.3 155.2L1920 159L1920 0L1874.3 0C1828.7 0 1737.3 0 1645.8 0C1554.3 0 1462.7 0 1371.2 0C1279.7 0 1188.3 0 1097 0C1005.7 0 914.3 0 823 0C731.7 0 640.3 0 548.8 0C457.3 0 365.7 0 274.2 0C182.7 0 91.3 0 45.7 0L0 0Z" fill="#ef5f67"></path><path d="M0 85L45.7 87.5C91.3 90 182.7 95 274.2 96.5C365.7 98 457.3 96 548.8 99.8C640.3 103.7 731.7 113.3 823 119.7C914.3 126 1005.7 129 1097 127.5C1188.3 126 1279.7 120 1371.2 114.8C1462.7 109.7 1554.3 105.3 1645.8 106.7C1737.3 108 1828.7 115 1874.3 118.5L1920 122L1920 0L1874.3 0C1828.7 0 1737.3 0 1645.8 0C1554.3 0 1462.7 0 1371.2 0C1279.7 0 1188.3 0 1097 0C1005.7 0 914.3 0 823 0C731.7 0 640.3 0 548.8 0C457.3 0 365.7 0 274.2 0C182.7 0 91.3 0 45.7 0L0 0Z" fill="#e34c67"></path><path d="M0 65L45.7 68.2C91.3 71.3 182.7 77.7 274.2 80.3C365.7 83 457.3 82 548.8 75.8C640.3 69.7 731.7 58.3 823 58.8C914.3 59.3 1005.7 71.7 1097 75.7C1188.3 79.7 1279.7 75.3 1371.2 69.7C1462.7 64 1554.3 57 1645.8 54.8C1737.3 52.7 1828.7 55.3 1874.3 56.7L1920 58L1920 0L1874.3 0C1828.7 0 1737.3 0 1645.8 0C1554.3 0 1462.7 0 1371.2 0C1279.7 0 1188.3 0 1097 0C1005.7 0 914.3 0 823 0C731.7 0 640.3 0 548.8 0C457.3 0 365.7 0 274.2 0C182.7 0 91.3 0 45.7 0L0 0Z" fill="#d53867"></path><path d="M0 51L45.7 50.2C91.3 49.3 182.7 47.7 274.2 44.7C365.7 41.7 457.3 37.3 548.8 34.5C640.3 31.7 731.7 30.3 823 32.8C914.3 35.3 1005.7 41.7 1097 45C1188.3 48.3 1279.7 48.7 1371.2 47.3C1462.7 46 1554.3 43 1645.8 40C1737.3 37 1828.7 34 1874.3 32.5L1920 31L1920 0L1874.3 0C1828.7 0 1737.3 0 1645.8 0C1554.3 0 1462.7 0 1371.2 0C1279.7 0 1188.3 0 1097 0C1005.7 0 914.3 0 823 0C731.7 0 640.3 0 548.8 0C457.3 0 365.7 0 274.2 0C182.7 0 91.3 0 45.7 0L0 0Z" fill="#c62368"></path></svg>