<svg version="1.1" viewBox="0 0 900 600" xmlns="http://www.w3.org/2000/svg">
<rect width="900" height="600" fill="#0f1624"/>
<path d="m0 182 21.5 8.7c21.5 8.6 64.5 26 107.3 28.5 42.9 2.5 85.5-9.9 128.4-18.4 42.8-8.5 85.8-13.1 128.6-20.1 42.9-7 85.5-16.4 128.4-11.4 42.8 5 85.8 24.4 128.6 25.5 42.9 1.2 85.5-15.8 128.4-9.8 42.8 6 85.8 35 107.3 49.5l21.5 14.5v-249h-21.5-107.3-128.4-128.6-128.4-128.6-128.4-107.3-21.5z" fill="#fa7268"/>
<path d="m0 195 21.5-1.8c21.5-1.9 64.5-5.5 107.3-14 42.9-8.5 85.5-21.9 128.4-27.4 42.8-5.5 85.8-3.1 128.6 1.2 42.9 4.3 85.5 10.7 128.4 15.8 42.8 5.2 85.8 9.2 128.6 5.4 42.9-3.9 85.5-15.5 128.4-20.5 42.8-5 85.8-3.4 107.3-2.5l21.5 0.8v-152h-21.5-107.3-128.4-128.6-128.4-128.6-128.4-107.3-21.5z" fill="#ef5f67"/>
<path d="m0 148 21.5 0.8c21.5 0.9 64.5 2.5 107.3-2.5 42.9-5 85.5-16.6 128.4-22.8 42.8-6.2 85.8-6.8 128.6-4.7 42.9 2.2 85.5 7.2 128.4 7.4 42.8 0.1 85.8-4.5 128.6-7.4 42.9-2.8 85.5-3.8 128.4-3.8 42.8 0 85.8 1 107.3 1.5l21.5 0.5v-117h-21.5-107.3-128.4-128.6-128.4-128.6-128.4-107.3-21.5z" fill="#e34c67"/>
<path d="m0 55 21.5 2.5c21.5 2.5 64.5 7.5 107.3 15.5 42.9 8 85.5 19 128.4 26.8 42.8 7.9 85.8 12.5 128.6 13 42.9 0.5 85.5-3.1 128.4-7.6 42.8-4.5 85.8-9.9 128.6-8.4 42.9 1.5 85.5 9.9 128.4 12.7 42.8 2.8 85.8 0.2 107.3-1.2l21.5-1.3v-107h-21.5-107.3-128.4-128.6-128.4-128.6-128.4-107.3-21.5z" fill="#d53867"/>
<path d="m0 34 21.5 5c21.5 5 64.5 15 107.3 19.8 42.9 4.9 85.5 4.5 128.4 2.2 42.8-2.3 85.8-6.7 128.6-6.2 42.9 0.5 85.5 5.9 128.4 5.9 42.8 0 85.8-5.4 128.6-8.4 42.9-3 85.5-3.6 128.4-7.5 42.8-3.8 85.8-10.8 107.3-14.3l21.5-3.5v-27h-21.5-107.3-128.4-128.6-128.4-128.6-128.4-107.3-21.5z" fill="#c62368"/>
</svg>
