<svg id="visual" viewBox="0 0 1920 300" width="1920" height="300" xmlns="http://www.w3.org/2000/svg" xmlns:xlink="http://www.w3.org/1999/xlink" version="1.1"><rect x="0" y="0" width="1920" height="300" fill="#0f1624"></rect><path d="M0 87L45.7 91.8C91.3 96.7 182.7 106.3 274.2 107.3C365.7 108.3 457.3 100.7 548.8 99.3C640.3 98 731.7 103 823 107.8C914.3 112.7 1005.7 117.3 1097 118.8C1188.3 120.3 1279.7 118.7 1371.2 113.8C1462.7 109 1554.3 101 1645.8 97C1737.3 93 1828.7 93 1874.3 93L1920 93L1920 0L1874.3 0C1828.7 0 1737.3 0 1645.8 0C1554.3 0 1462.7 0 1371.2 0C1279.7 0 1188.3 0 1097 0C1005.7 0 914.3 0 823 0C731.7 0 640.3 0 548.8 0C457.3 0 365.7 0 274.2 0C182.7 0 91.3 0 45.7 0L0 0Z" fill="#fa7268"></path><path d="M0 101L45.7 96.2C91.3 91.3 182.7 81.7 274.2 74.8C365.7 68 457.3 64 548.8 67.8C640.3 71.7 731.7 83.3 823 84.5C914.3 85.7 1005.7 76.3 1097 71.2C1188.3 66 1279.7 65 1371.2 67.8C1462.7 70.7 1554.3 77.3 1645.8 77.8C1737.3 78.3 1828.7 72.7 1874.3 69.8L1920 67L1920 0L1874.3 0C1828.7 0 1737.3 0 1645.8 0C1554.3 0 1462.7 0 1371.2 0C1279.7 0 1188.3 0 1097 0C1005.7 0 914.3 0 823 0C731.7 0 640.3 0 548.8 0C457.3 0 365.7 0 274.2 0C182.7 0 91.3 0 45.7 0L0 0Z" fill="#ef5f67"></path><path d="M0 76L45.7 72.7C91.3 69.3 182.7 62.7 274.2 63.2C365.7 63.7 457.3 71.3 548.8 74.7C640.3 78 731.7 77 823 72.2C914.3 67.3 1005.7 58.7 1097 57C1188.3 55.3 1279.7 60.7 1371.2 59.8C1462.7 59 1554.3 52 1645.8 49.7C1737.3 47.3 1828.7 49.7 1874.3 50.8L1920 52L1920 0L1874.3 0C1828.7 0 1737.3 0 1645.8 0C1554.3 0 1462.7 0 1371.2 0C1279.7 0 1188.3 0 1097 0C1005.7 0 914.3 0 823 0C731.7 0 640.3 0 548.8 0C457.3 0 365.7 0 274.2 0C182.7 0 91.3 0 45.7 0L0 0Z" fill="#e34c67"></path><path d="M0 31L45.7 35.2C91.3 39.3 182.7 47.7 274.2 48.5C365.7 49.3 457.3 42.7 548.8 38.7C640.3 34.7 731.7 33.3 823 32.7C914.3 32 1005.7 32 1097 33C1188.3 34 1279.7 36 1371.2 35.7C1462.7 35.3 1554.3 32.7 1645.8 31.5C1737.3 30.3 1828.7 30.7 1874.3 30.8L1920 31L1920 0L1874.3 0C1828.7 0 1737.3 0 1645.8 0C1554.3 0 1462.7 0 1371.2 0C1279.7 0 1188.3 0 1097 0C1005.7 0 914.3 0 823 0C731.7 0 640.3 0 548.8 0C457.3 0 365.7 0 274.2 0C182.7 0 91.3 0 45.7 0L0 0Z" fill="#d53867"></path><path d="M0 32L45.7 28.8C91.3 25.7 182.7 19.3 274.2 19C365.7 18.7 457.3 24.3 548.8 25.7C640.3 27 731.7 24 823 21.7C914.3 19.3 1005.7 17.7 1097 16.7C1188.3 15.7 1279.7 15.3 1371.2 18.2C1462.7 21 1554.3 27 1645.8 29.7C1737.3 32.3 1828.7 31.7 1874.3 31.3L1920 31L1920 0L1874.3 0C1828.7 0 1737.3 0 1645.8 0C1554.3 0 1462.7 0 1371.2 0C1279.7 0 1188.3 0 1097 0C1005.7 0 914.3 0 823 0C731.7 0 640.3 0 548.8 0C457.3 0 365.7 0 274.2 0C182.7 0 91.3 0 45.7 0L0 0Z" fill="#c62368"></path></svg>