<svg id="visual" viewBox="0 0 1920 250" width="1920" height="250" xmlns="http://www.w3.org/2000/svg" xmlns:xlink="http://www.w3.org/1999/xlink" version="1.1"><path d="M0 72L45.7 76.2C91.3 80.3 182.7 88.7 274.2 89.5C365.7 90.3 457.3 83.7 548.8 82.5C640.3 81.3 731.7 85.7 823 89.8C914.3 94 1005.7 98 1097 99.2C1188.3 100.3 1279.7 98.7 1371.2 94.7C1462.7 90.7 1554.3 84.3 1645.8 81.2C1737.3 78 1828.7 78 1874.3 78L1920 78L1920 0L1874.3 0C1828.7 0 1737.3 0 1645.8 0C1554.3 0 1462.7 0 1371.2 0C1279.7 0 1188.3 0 1097 0C1005.7 0 914.3 0 823 0C731.7 0 640.3 0 548.8 0C457.3 0 365.7 0 274.2 0C182.7 0 91.3 0 45.7 0L0 0Z" fill="#fa7268"></path><path d="M0 84L45.7 80C91.3 76 182.7 68 274.2 62.2C365.7 56.3 457.3 52.7 548.8 55.8C640.3 59 731.7 69 823 70.2C914.3 71.3 1005.7 63.7 1097 59.5C1188.3 55.3 1279.7 54.7 1371.2 57C1462.7 59.3 1554.3 64.7 1645.8 65C1737.3 65.3 1828.7 60.7 1874.3 58.3L1920 56L1920 0L1874.3 0C1828.7 0 1737.3 0 1645.8 0C1554.3 0 1462.7 0 1371.2 0C1279.7 0 1188.3 0 1097 0C1005.7 0 914.3 0 823 0C731.7 0 640.3 0 548.8 0C457.3 0 365.7 0 274.2 0C182.7 0 91.3 0 45.7 0L0 0Z" fill="#ef5f67"></path><path d="M0 63L45.7 60.2C91.3 57.3 182.7 51.7 274.2 52C365.7 52.3 457.3 58.7 548.8 61.5C640.3 64.3 731.7 63.7 823 59.8C914.3 56 1005.7 49 1097 47.7C1188.3 46.3 1279.7 50.7 1371.2 49.8C1462.7 49 1554.3 43 1645.8 41C1737.3 39 1828.7 41 1874.3 42L1920 43L1920 0L1874.3 0C1828.7 0 1737.3 0 1645.8 0C1554.3 0 1462.7 0 1371.2 0C1279.7 0 1188.3 0 1097 0C1005.7 0 914.3 0 823 0C731.7 0 640.3 0 548.8 0C457.3 0 365.7 0 274.2 0C182.7 0 91.3 0 45.7 0L0 0Z" fill="#e34c67"></path><path d="M0 25L45.7 28.7C91.3 32.3 182.7 39.7 274.2 40.5C365.7 41.3 457.3 35.7 548.8 32.2C640.3 28.7 731.7 27.3 823 26.7C914.3 26 1005.7 26 1097 27C1188.3 28 1279.7 30 1371.2 29.8C1462.7 29.7 1554.3 27.3 1645.8 26.2C1737.3 25 1828.7 25 1874.3 25L1920 25L1920 0L1874.3 0C1828.7 0 1737.3 0 1645.8 0C1554.3 0 1462.7 0 1371.2 0C1279.7 0 1188.3 0 1097 0C1005.7 0 914.3 0 823 0C731.7 0 640.3 0 548.8 0C457.3 0 365.7 0 274.2 0C182.7 0 91.3 0 45.7 0L0 0Z" fill="#d53867"></path><path d="M0 26L45.7 23.5C91.3 21 182.7 16 274.2 15.8C365.7 15.7 457.3 20.3 548.8 21.5C640.3 22.7 731.7 20.3 823 18.3C914.3 16.3 1005.7 14.7 1097 13.7C1188.3 12.7 1279.7 12.3 1371.2 14.7C1462.7 17 1554.3 22 1645.8 24.2C1737.3 26.3 1828.7 25.7 1874.3 25.3L1920 25L1920 0L1874.3 0C1828.7 0 1737.3 0 1645.8 0C1554.3 0 1462.7 0 1371.2 0C1279.7 0 1188.3 0 1097 0C1005.7 0 914.3 0 823 0C731.7 0 640.3 0 548.8 0C457.3 0 365.7 0 274.2 0C182.7 0 91.3 0 45.7 0L0 0Z" fill="#c62368"></path></svg>