<svg id="visual" viewBox="0 0 1920 150" width="1920" height="150" xmlns="http://www.w3.org/2000/svg" xmlns:xlink="http://www.w3.org/1999/xlink" version="1.1"><rect x="0" y="0" width="1920" height="150" fill="#0f1624"></rect><path d="M0 43L45.7 45.5C91.3 48 182.7 53 274.2 53.5C365.7 54 457.3 50 548.8 49.3C640.3 48.7 731.7 51.3 823 53.8C914.3 56.3 1005.7 58.7 1097 59.3C1188.3 60 1279.7 59 1371.2 56.5C1462.7 54 1554.3 50 1645.8 48C1737.3 46 1828.7 46 1874.3 46L1920 46L1920 0L1874.3 0C1828.7 0 1737.3 0 1645.8 0C1554.3 0 1462.7 0 1371.2 0C1279.7 0 1188.3 0 1097 0C1005.7 0 914.3 0 823 0C731.7 0 640.3 0 548.8 0C457.3 0 365.7 0 274.2 0C182.7 0 91.3 0 45.7 0L0 0Z" fill="#fa7268"></path><path d="M0 50L45.7 47.7C91.3 45.3 182.7 40.7 274.2 37.2C365.7 33.7 457.3 31.3 548.8 33.2C640.3 35 731.7 41 823 41.7C914.3 42.3 1005.7 37.7 1097 35.2C1188.3 32.7 1279.7 32.3 1371.2 33.8C1462.7 35.3 1554.3 38.7 1645.8 38.8C1737.3 39 1828.7 36 1874.3 34.5L1920 33L1920 0L1874.3 0C1828.7 0 1737.3 0 1645.8 0C1554.3 0 1462.7 0 1371.2 0C1279.7 0 1188.3 0 1097 0C1005.7 0 914.3 0 823 0C731.7 0 640.3 0 548.8 0C457.3 0 365.7 0 274.2 0C182.7 0 91.3 0 45.7 0L0 0Z" fill="#ef5f67"></path><path d="M0 37L45.7 35.3C91.3 33.7 182.7 30.3 274.2 30.7C365.7 31 457.3 35 548.8 36.8C640.3 38.7 731.7 38.3 823 36C914.3 33.7 1005.7 29.3 1097 28.3C1188.3 27.3 1279.7 29.7 1371.2 29.2C1462.7 28.7 1554.3 25.3 1645.8 24.3C1737.3 23.3 1828.7 24.7 1874.3 25.3L1920 26L1920 0L1874.3 0C1828.7 0 1737.3 0 1645.8 0C1554.3 0 1462.7 0 1371.2 0C1279.7 0 1188.3 0 1097 0C1005.7 0 914.3 0 823 0C731.7 0 640.3 0 548.8 0C457.3 0 365.7 0 274.2 0C182.7 0 91.3 0 45.7 0L0 0Z" fill="#e34c67"></path><path d="M0 15L45.7 17.2C91.3 19.3 182.7 23.7 274.2 24C365.7 24.3 457.3 20.7 548.8 18.5C640.3 16.3 731.7 15.7 823 15.3C914.3 15 1005.7 15 1097 15.7C1188.3 16.3 1279.7 17.7 1371.2 17.5C1462.7 17.3 1554.3 15.7 1645.8 15C1737.3 14.3 1828.7 14.7 1874.3 14.8L1920 15L1920 0L1874.3 0C1828.7 0 1737.3 0 1645.8 0C1554.3 0 1462.7 0 1371.2 0C1279.7 0 1188.3 0 1097 0C1005.7 0 914.3 0 823 0C731.7 0 640.3 0 548.8 0C457.3 0 365.7 0 274.2 0C182.7 0 91.3 0 45.7 0L0 0Z" fill="#d53867"></path><path d="M0 15L45.7 13.5C91.3 12 182.7 9 274.2 9C365.7 9 457.3 12 548.8 12.7C640.3 13.3 731.7 11.7 823 10.3C914.3 9 1005.7 8 1097 7.5C1188.3 7 1279.7 7 1371.2 8.5C1462.7 10 1554.3 13 1645.8 14.3C1737.3 15.7 1828.7 15.3 1874.3 15.2L1920 15L1920 0L1874.3 0C1828.7 0 1737.3 0 1645.8 0C1554.3 0 1462.7 0 1371.2 0C1279.7 0 1188.3 0 1097 0C1005.7 0 914.3 0 823 0C731.7 0 640.3 0 548.8 0C457.3 0 365.7 0 274.2 0C182.7 0 91.3 0 45.7 0L0 0Z" fill="#c62368"></path></svg>